<?xml version="1.0" standalone="no"?>
<!DOCTYPE svg PUBLIC "-//W3C//DTD SVG 20010904//EN"
 "http://www.w3.org/TR/2001/REC-SVG-20010904/DTD/svg10.dtd">
<svg version="1.0" xmlns="http://www.w3.org/2000/svg"
 width="218.000000pt" height="284.000000pt" viewBox="0 0 218.000000 284.000000"
 preserveAspectRatio="xMidYMid meet">
<metadata>
Created by potrace 1.16, written by Peter Selinger 2001-2019
</metadata>
<g transform="translate(0.000000,284.000000) scale(0.100000,-0.100000)"
fill="#000000" stroke="none">
<path d="M930 2769 c-19 -6 -73 -14 -120 -19 -66 -7 -100 -17 -157 -46 -81
-41 -283 -203 -296 -237 -4 -12 -14 -28 -21 -37 -7 -8 -19 -31 -26 -50 -7 -19
-26 -48 -41 -65 -22 -24 -28 -39 -27 -76 0 -26 -8 -73 -17 -105 -9 -33 -20
-72 -25 -89 -16 -60 -32 -167 -44 -292 -10 -121 -12 -128 -33 -131 -13 -2 -23
-8 -23 -13 0 -6 -4 -8 -9 -4 -15 8 -24 -14 -28 -65 -3 -39 1 -53 20 -76 14
-16 39 -60 56 -99 36 -78 46 -152 61 -450 8 -170 16 -201 74 -300 52 -87 115
-162 211 -251 52 -48 95 -92 95 -97 0 -14 88 -115 114 -133 41 -26 173 -53
302 -60 120 -6 133 -5 181 16 29 12 59 20 68 16 8 -3 15 -1 15 4 0 5 8 9 18 9
44 0 81 17 132 61 30 26 74 59 97 73 66 42 202 172 287 274 42 51 76 97 76
102 0 6 10 27 21 48 16 28 24 65 29 138 11 138 18 167 47 191 13 12 36 52 50
90 22 60 26 89 30 227 3 86 9 157 13 157 4 0 6 12 4 26 -1 16 5 35 17 47 24
26 25 90 3 142 -30 72 -54 188 -54 259 0 120 -54 249 -139 334 -27 27 -60 67
-75 90 -14 23 -41 49 -58 58 -18 9 -51 31 -73 49 -46 37 -235 162 -259 171 -9
3 -16 2 -16 -4 0 -6 6 -13 13 -15 7 -4 8 -6 1 -6 -6 -1 -17 6 -24 14 -10 11
-10 15 0 15 14 0 9 21 -5 22 -6 1 -15 7 -20 15 -6 8 -17 15 -25 17 -8 1 -26 8
-39 15 -13 7 -60 17 -105 21 -44 5 -99 13 -121 19 -48 13 -107 12 -155 0z
m405 -218 c53 -20 139 -67 177 -97 131 -101 284 -360 294 -494 2 -30 10 -84
17 -119 12 -57 17 -65 47 -80 18 -9 35 -21 37 -28 6 -18 -63 -33 -154 -33
l-83 0 -1 30 c-3 52 -4 55 -14 62 -5 4 -40 8 -76 8 -48 0 -68 4 -72 14 -3 8
-20 14 -40 14 -19 0 -44 5 -55 11 -29 16 -230 16 -293 0 -30 -7 -68 -23 -85
-36 -17 -13 -41 -23 -53 -23 -24 0 -94 -44 -125 -79 -14 -15 -23 -18 -37 -11
-10 6 -29 10 -43 10 -15 0 -45 9 -69 20 -60 28 -92 34 -182 33 -62 0 -89 -5
-122 -21 -23 -12 -49 -22 -57 -22 -8 0 -17 -9 -21 -19 -6 -20 -49 -44 -99 -57
l-29 -7 6 122 c8 160 52 314 147 514 33 71 129 177 159 177 9 0 27 9 41 20 29
22 47 25 52 8 3 -8 16 -4 39 13 30 21 68 39 121 56 9 3 26 -5 38 -17 18 -18
24 -19 37 -9 10 9 59 14 157 15 106 1 157 6 206 21 63 18 94 19 135 4z m512
-891 c9 -16 11 -42 7 -73 -7 -58 5 -227 16 -227 5 0 10 10 12 22 3 19 6 17 31
-20 15 -23 27 -51 27 -62 0 -25 25 -37 44 -21 18 15 27 88 14 117 -6 13 -22
31 -36 40 -24 16 -26 16 -39 -2 -7 -10 -13 -12 -13 -5 0 21 29 68 45 75 13 4
16 18 14 58 -4 77 32 123 69 86 18 -18 14 -26 -12 -21 -13 3 -27 -1 -31 -7 -9
-14 14 -120 26 -120 4 0 12 22 19 50 7 27 16 48 21 45 4 -3 3 -18 -3 -33 -6
-15 -14 -108 -18 -207 -7 -154 -12 -190 -33 -248 -14 -38 -35 -75 -49 -87 -29
-22 -36 -51 -47 -198 -9 -106 -23 -143 -42 -109 -15 26 -40 20 -79 -18 -45
-46 -69 -47 -35 -1 16 21 21 66 7 66 -4 0 -12 -10 -17 -22 -21 -47 -35 -10
-21 57 2 11 4 28 5 39 1 15 4 16 15 6 8 -6 17 -21 19 -33 3 -12 3 3 0 35 -2
31 0 59 5 62 5 3 9 22 10 42 1 28 -3 37 -19 41 -12 4 -22 17 -26 35 -11 56
-26 43 -21 -21 3 -45 1 -65 -10 -73 -10 -9 -16 -8 -23 3 -6 10 -9 2 -10 -26
-1 -22 -5 -53 -9 -70 l-8 -30 -1 27 c-1 38 -16 42 -36 11 l-18 -27 -19 69
c-11 38 -30 84 -44 102 -13 17 -24 34 -24 37 0 3 -20 24 -45 47 -25 23 -45 48
-45 55 0 8 -5 14 -10 14 -12 0 -123 88 -128 102 -6 14 20 39 37 36 9 -1 21 0
26 3 6 4 46 14 90 24 72 16 83 21 122 63 31 34 47 63 59 110 10 38 25 69 38
77 11 8 17 17 13 21 -3 4 3 23 13 44 33 64 142 90 167 40z m-921 -174 c16 -18
41 -56 57 -85 20 -37 42 -61 81 -86 42 -27 53 -39 49 -54 -3 -11 2 -30 11 -43
20 -28 20 -57 1 -82 -11 -15 -22 -17 -62 -12 -26 3 -94 8 -150 12 -86 6 -107
4 -127 -10 -14 -9 -36 -16 -48 -16 -13 -1 -34 -10 -47 -21 l-24 -20 22 -23 22
-24 -25 -20 c-14 -11 -26 -24 -26 -28 0 -5 -19 -20 -41 -32 -62 -36 -68 -17
-24 65 21 37 41 72 46 77 5 6 9 25 9 44 0 19 11 49 25 70 14 20 25 42 25 49 0
6 11 24 24 40 15 18 33 63 46 114 23 94 44 119 95 119 25 0 40 -8 61 -34z
m-613 -136 c51 -36 55 -45 31 -71 -14 -16 -14 -18 5 -24 18 -5 40 3 91 35 28
17 189 62 199 55 17 -10 13 -23 -9 -30 -30 -10 -25 -28 6 -21 16 4 23 3 19 -3
-12 -21 -113 -43 -218 -48 -141 -8 -172 5 -211 84 -19 40 -25 64 -21 84 l7 29
26 -28 c15 -15 48 -43 75 -62z m-26 -130 c9 0 25 -8 36 -17 15 -14 37 -18 101
-18 44 0 86 -4 93 -8 15 -9 -1 -40 -42 -82 -70 -72 -95 -109 -115 -177 -6 -20
-4 -30 7 -40 21 -17 73 -131 80 -174 4 -24 2 -34 -7 -34 -21 0 -50 31 -50 54
0 28 -28 68 -42 60 -6 -4 -14 -1 -18 6 -11 18 -52 23 -61 8 -4 -6 -3 -20 2
-30 7 -14 6 -20 -6 -24 -8 -3 -15 -14 -16 -23 0 -12 -2 -12 -9 4 -12 29 -12
35 4 35 11 0 11 9 -2 53 -8 28 -18 81 -23 117 -21 166 -29 251 -29 304 l0 58
40 -36 c22 -20 48 -36 57 -36z m1069 -478 c14 -9 27 -60 18 -74 -4 -6 -9 -38
-11 -72 -3 -42 -9 -65 -21 -74 -9 -7 -16 -18 -14 -23 1 -5 -15 -7 -36 -4 -34
4 -40 1 -56 -25 -9 -17 -23 -30 -30 -30 -8 0 -26 -6 -41 -14 -35 -18 -46 -13
-66 29 -15 33 -15 35 6 55 12 11 25 20 31 20 15 1 46 50 40 66 -3 7 -16 14
-30 14 -24 0 -86 29 -86 41 0 7 62 19 101 19 14 0 44 12 66 28 77 54 102 62
129 44z m-664 -43 c37 -24 65 -33 124 -40 42 -4 79 -11 81 -13 3 -3 -17 -8
-43 -11 -30 -4 -60 -16 -77 -31 -26 -22 -27 -26 -15 -51 7 -16 22 -29 33 -31
11 -1 41 -5 67 -8 29 -4 45 -10 42 -16 -4 -6 2 -8 15 -4 11 3 30 8 40 11 11 3
28 2 38 -4 10 -5 27 -13 38 -17 19 -7 19 -8 -3 -12 -14 -2 -22 -9 -19 -17 7
-17 -22 -58 -37 -52 -7 3 -18 -4 -24 -14 -15 -23 -49 -25 -72 -4 -15 13 -19
13 -39 -9 -20 -21 -27 -23 -64 -14 -51 11 -53 13 -37 33 15 18 7 19 -22 4 -16
-9 -23 -7 -35 10 -8 12 -21 21 -29 21 -42 0 -73 61 -50 98 4 7 -7 25 -30 46
l-37 34 19 29 c10 15 17 32 16 37 -5 17 29 56 50 56 12 0 43 -14 70 -31z"/>
</g>
</svg>
